<?xml version="1.0" encoding="utf-8"?>
<!-- Generator: Adobe Illustrator 20.1.0, SVG Export Plug-In . SVG Version: 6.00 Build 0)  -->
<svg version="1.1" id="Layer_1" xmlns="http://www.w3.org/2000/svg" xmlns:xlink="http://www.w3.org/1999/xlink" x="0px" y="0px"
	 viewBox="0 0 648.2 294.2" style="enable-background:new 0 0 648.2 294.2;" xml:space="preserve">
<style type="text/css">
	.st0{fill:#00A2DC;}
	.st1{fill:none;stroke:#FFFFFF;stroke-width:0.5;stroke-miterlimit:2.6131;}
</style>
<g id="XMLID_1_">
	<g>
		<path class="st0" d="M509.6,26.9v193.5c0,14.7-12,26.7-26.7,26.7h-11l0.4,46.8l-56-46.8H26.9c-14.7,0-26.7-12-26.7-26.7V26.9
			c0-14.7,12-26.7,26.7-26.7h456C497.6,0.2,509.6,12.3,509.6,26.9z M468.4,202.3v-74.9c0-13.1-3.3-23-9.9-29.7
			c-7.7-7.8-17.2-11.7-28.5-11.7c-5.8,0-11.5,1.2-17.1,3.6c-5.6,2.4-11.2,6-16.8,10.8V45.1h-28.3v157.2h28.3v-45.6
			c0-12.2,0.4-20,1.2-23.4c1.6-6.6,4.5-11.8,8.6-15.6s9.1-5.7,14.9-5.7c4.5,0,8.1,1.1,11.2,3.4c3,2.3,5.2,5.8,6.4,10.4
			c1.2,4.6,1.8,13.5,1.8,26.7v49.7H468.4z M351.5,113.4V88.8h-16.9V47.1h-28.4v41.8h-14.6v24.5h14.6v88.9h28.4v-88.9H351.5z
			 M273.5,73.7c3.6-3.6,5.3-7.9,5.3-13c0-5.1-1.8-9.5-5.3-13.1c-3.6-3.6-7.9-5.4-12.9-5.4c-5,0-9.3,1.8-12.8,5.3
			c-3.5,3.5-5.3,7.8-5.3,12.8c0,5.2,1.8,9.6,5.4,13.3c3.6,3.7,7.9,5.5,13,5.5C265.7,79.1,269.9,77.3,273.5,73.7z M274.8,202.3V88.8
			h-28.6v113.5H274.8z M226.9,202.3V88.8h-28.4v12.5c-5.1-5.1-10.6-9-16.6-11.6c-6-2.6-12.4-3.9-19.2-3.9
			c-14.8,0-27.4,5.6-37.8,16.8c-10.4,11.2-15.5,25.5-15.5,43.1c0,16.9,5.3,31,16,42.4c10.7,11.4,23.4,17.1,38,17.1
			c6.5,0,12.6-1.2,18.2-3.5c5.6-2.3,11.2-6.1,16.7-11.4v12H226.9z M99.2,67.9V46.2c-7.4-2.7-14.1-4-20-4c-8.2,0-14.6,1.8-19,5.5
			c-4.5,3.6-7.1,8.6-7.9,14.8c-0.4,2.7-0.6,11.5-0.7,26.4H41.4V113h10.1v89.2H80V113h18V88.8H80l0.1-14.2c0-3.3,0.6-5.4,1.7-6.5
			c1.5-1.4,4-2.1,7.3-2.1C91.7,66.1,95.1,66.7,99.2,67.9z"/>
		<path class="st0" d="M191.1,121.4c5.9,6.1,8.9,14.1,8.9,23.9c0,10.1-2.9,18.3-8.9,24.4c-5.9,6.2-13.3,9.4-22.3,9.4
			c-8.7,0-16-3.2-22-9.5c-5.9-6.3-8.9-14.4-8.9-24.2c0-9.7,2.9-17.7,8.8-23.9c5.8-6.2,13.2-9.3,22-9.3
			C177.7,112.2,185.1,115.3,191.1,121.4z"/>
	</g>
	<g>
	</g>
</g>
<g id="XMLID_2_">
	<g>
		<path class="st0" d="M573.6,60.7c0,5.1-1.7,9.4-5.3,13c-3.6,3.6-7.8,5.4-12.7,5.4c-5.1,0-9.4-1.8-13-5.5
			c-3.6-3.6-5.4-8.1-5.4-13.3c0-5,1.8-9.3,5.3-12.8c3.6-3.5,7.8-5.3,12.8-5.3c5,0,9.3,1.8,12.9,5.4
			C571.8,51.2,573.6,55.6,573.6,60.7z"/>
		<rect x="541.1" y="88.8" class="st0" width="28.6" height="113.4"/>
	</g>
	<g>
	</g>
</g>
<polygon class="st0" points="603,47.1 631.4,47.1 631.4,88.9 648.2,88.9 648.2,113.4 631.4,113.4 631.4,202.3 603,202.3 603,113.4 
	588.4,113.4 588.4,88.9 603,88.9 "/>
<rect x="-68.8" y="-158.9" class="st1" width="786" height="612"/>
</svg>
